<svg xmlns="http://www.w3.org/2000/svg" viewBox="0 0 64 64" role="img" aria-labelledby="title">
  <title id="title">Person seated at a laptop and typing</title>
  <rect x="3" y="3" width="58" height="58" rx="14" fill="#ffffff" stroke="#111111" stroke-width="2.4"/>
  <g fill="none" stroke="#111111" stroke-width="3.2" stroke-linecap="round" stroke-linejoin="round">
    <circle cx="18" cy="17" r="7"/>
    <path d="M12 15c1-5 5-7 10-4M24 16l3 2-3 2M14 25c-4 5-5 13-4 22M14 26c5 0 9 4 11 9"/>
    <path d="M19 29c3 5 5 10 12 14M17 33c4 5 8 8 15 10"/>
    <path d="M34 26l20 4-3 17-19-4z" fill="#ffffff"/>
    <path d="M39 36h3m5-2 2 2-2 2" stroke-width="2.4"/>
    <path d="M29 45h23l4 5H26z" fill="#ffffff"/>
    <path d="M32 48h6M41 47h6" stroke-width="2.1"/>
  </g>
</svg>
